<?xml version="1.0" encoding="UTF-8" standalone="no"?>
<svg
   width="11.949467mm"
   height="25.323908mm"
   viewBox="0 0 11.949467 25.323908"
   version="1.1"
   id="svg8"
   inkscape:version="1.0.1 (3bc2e813f5, 2020-09-07)"
   sodipodi:docname="BUKU PESERTA.svg"
   inkscape:export-filename="D:\MY PRODUCT\PAKET LEBARAN\PAKET NIZAM 2025-2026\PAKET NIZAMI 2025-2026\g18504.png"
   inkscape:export-xdpi="300"
   inkscape:export-ydpi="300"
   xmlns:inkscape="http://www.inkscape.org/namespaces/inkscape"
   xmlns:sodipodi="http://sodipodi.sourceforge.net/DTD/sodipodi-0.dtd"
   xmlns="http://www.w3.org/2000/svg"
   xmlns:svg="http://www.w3.org/2000/svg"
   xmlns:rdf="http://www.w3.org/1999/02/22-rdf-syntax-ns#"
   xmlns:cc="http://creativecommons.org/ns#"
   xmlns:dc="http://purl.org/dc/elements/1.1/"
   xmlns:ns7="&amp;#38;#38;#38;#38;#38;#38;#38;#38;#38;#38;#38;#38;#38;#38;#38;#38;#38;#38;#38;#38;#38;#38;#38;#38;#38;#38;#38;#38;#38;#38;#38;#38;#38;#38;#38;ns_ai;">
  <defs
     id="defs2" />
  <sodipodi:namedview
     id="base"
     pagecolor="#2a2a2a"
     bordercolor="#666666"
     borderopacity="1.0"
     inkscape:pageopacity="0"
     inkscape:pageshadow="2"
     inkscape:zoom="2.3216651"
     inkscape:cx="17.659739"
     inkscape:cy="58.79401"
     inkscape:document-units="mm"
     inkscape:current-layer="svg8"
     inkscape:document-rotation="0"
     showgrid="false"
     inkscape:showpageshadow="false"
     inkscape:pagecheckerboard="0"
     inkscape:snap-global="true"
     inkscape:deskcolor="#d1d1d1"
     inkscape:window-width="1440"
     inkscape:window-height="837"
     inkscape:window-x="-8"
     inkscape:window-y="-8"
     inkscape:window-maximized="1">
    <inkscape:page
       x="-2.0112108e-22"
       y="0"
       width="11.949468"
       height="25.323908"
       id="page2"
       margin="0"
       bleed="0" />
  </sodipodi:namedview>
  <metadata
     id="metadata5">
    <rdf:RDF>
      <cc:Work
         rdf:about="">
        <dc:format>image/svg+xml</dc:format>
        <dc:type
           rdf:resource="http://purl.org/dc/dcmitype/StillImage" />
        <dc:title />
      </cc:Work>
    </rdf:RDF>
  </metadata>
  <g
     id="g78"
     transform="matrix(-1.0807481,0,0,1.0656622,849.31699,-295.40236)"
     style="fill:#806600;fill-opacity:1;stroke-width:1.52211">
    <g
       id="g60"
       transform="matrix(0.26458333,0,0,0.26458333,760.94355,246.09367)"
       style="fill:#806600;fill-opacity:1;stroke-width:1.52211">
      <path
         ns7:knockout="Off"
         fill="#1c75bc"
         d="m 92.42,159.423 c -0.2,-4.745 -5.035,-8.542 -10.974,-8.542 -5.939,0 -10.773,3.798 -10.974,8.542 z"
         id="path44"
         style="fill:#338000;fill-opacity:1;stroke-width:1.52211" />
      <path
         ns7:knockout="Off"
         fill="#ffffff"
         d="m 77.006,158.236 c -1.761,-0.054 -2.82,-1.993 -1.898,-3.495 1.345,-2.191 3.859,-3.704 6.772,-3.842 -0.145,-0.006 -0.288,-0.019 -0.434,-0.019 -4.544,0 -8.309,3.012 -9,6.951 -0.093,0.53 0.304,1.02 0.842,1.02 h 17.266 c -0.007,-0.173 -8.81,-0.468 -13.548,-0.615 z"
         id="path45"
         style="fill:#338000;fill-opacity:1;stroke-width:1.52211" />
      <path
         ns7:knockout="Off"
         fill="#1c75bc"
         d="m 75.75,200.554 c 0.104,2.463 2.613,4.434 5.696,4.434 3.083,0 5.592,-1.971 5.696,-4.434 z"
         id="path46"
         style="fill:#338000;fill-opacity:1;stroke-width:1.52211" />
      <path
         ns7:knockout="Off"
         fill="#1c75bc"
         d="m 90.276,161.32 h -17.66 c -0.544,0 -1.064,-0.227 -1.433,-0.627 l -0.71,-0.769 H 92.42 l -0.71,0.769 c -0.37,0.399 -0.889,0.627 -1.434,0.627 z"
         id="path47"
         style="fill:#338000;fill-opacity:1;stroke-width:1.52211" />
      <path
         ns7:knockout="Off"
         fill="#1c75bc"
         d="m 73.318,164.759 h 16.255 c 1.37,0 2.69,0.517 3.696,1.448 l 0.83,0.768 c 0.154,0.143 0.053,0.401 -0.157,0.401 H 68.95 c -0.21,0 -0.311,-0.258 -0.157,-0.401 l 0.83,-0.768 c 1.006,-0.931 2.325,-1.448 3.695,-1.448 z"
         id="path48"
         style="fill:#338000;fill-opacity:1;stroke-width:1.52211" />
      <path
         ns7:knockout="Off"
         fill="#ffffff"
         d="m 74.728,166.701 0.675,-0.536 c 0.817,-0.649 1.891,-1.01 3.005,-1.01 h -3.57 c -1.114,0 -2.187,0.361 -3.005,1.01 l -0.675,0.536 c -0.126,0.1 -0.043,0.279 0.128,0.279 h 3.57 c -0.171,0 -0.253,-0.179 -0.128,-0.279 z"
         id="path49"
         style="fill:#338000;fill-opacity:1;stroke-width:1.52211" />
      <path
         ns7:knockout="Off"
         fill="#1c75bc"
         d="m 73.788,161.828 v 2.349 h 0.47 v -0.342 c 0,-0.835 0.37,-1.512 0.827,-1.512 0.457,0 0.827,0.677 0.827,1.512 v 0.342 h 1.021 v -0.342 c 0,-0.835 0.465,-1.512 1.039,-1.512 0.574,0 1.039,0.677 1.039,1.512 v 0.342 h 1.256 v -0.342 c 0,-0.835 0.528,-1.512 1.179,-1.512 0.651,0 1.18,0.677 1.18,1.512 v 0.342 h 1.303 v -0.342 c 0,-0.835 0.465,-1.512 1.039,-1.512 0.574,0 1.039,0.677 1.039,1.512 v 0.342 h 0.814 v -0.342 c 0,-0.835 0.37,-1.512 0.827,-1.512 0.457,0 0.827,0.677 0.827,1.512 v 0.342 h 0.63 v -2.349 z"
         id="path50"
         style="fill:#338000;fill-opacity:1;stroke-width:1.52211" />
      <path
         ns7:knockout="Off"
         fill="#1c75bc"
         d="m 87.115,199.968 c 0.598,-1.042 5.254,-2.192 5.305,-3.406 H 70.472 c 0.051,1.213 4.707,2.364 5.305,3.406 z"
         id="path51"
         style="fill:#338000;fill-opacity:1;stroke-width:1.52211" />
      <path
         ns7:knockout="Off"
         fill="#1c75bc"
         d="m 72.616,194.665 h 17.661 c 0.544,0 1.064,0.227 1.433,0.627 l 0.71,0.769 H 70.472 l 0.71,-0.769 c 0.37,-0.4 0.889,-0.627 1.434,-0.627 z"
         id="path52"
         style="fill:#338000;fill-opacity:1;stroke-width:1.52211" />
      <path
         ns7:knockout="Off"
         fill="#1c75bc"
         d="M 89.574,191.225 H 73.318 c -1.37,0 -2.69,-0.517 -3.696,-1.448 l -0.83,-0.768 c -0.154,-0.143 -0.053,-0.401 0.157,-0.401 h 24.992 c 0.21,0 0.312,0.258 0.157,0.401 l -0.83,0.768 c -1.005,0.931 -2.324,1.448 -3.694,1.448 z"
         id="path53"
         style="fill:#338000;fill-opacity:1;stroke-width:1.52211" />
      <path
         ns7:knockout="Off"
         fill="#1c75bc"
         d="m 89.104,194.157 v -2.349 h -0.469 v 0.342 c 0,0.835 -0.371,1.511 -0.827,1.511 -0.457,0 -0.827,-0.677 -0.827,-1.511 v -0.342 H 85.96 v 0.342 c 0,0.835 -0.465,1.511 -1.039,1.511 -0.574,0 -1.039,-0.677 -1.039,-1.511 v -0.342 h -1.256 v 0.342 c 0,0.835 -0.528,1.511 -1.179,1.511 -0.651,0 -1.179,-0.677 -1.179,-1.511 v -0.342 h -1.303 v 0.342 c 0,0.835 -0.465,1.511 -1.039,1.511 -0.574,0 -1.039,-0.677 -1.039,-1.511 v -0.342 h -0.814 v 0.342 c 0,0.835 -0.37,1.511 -0.827,1.511 -0.457,0 -0.827,-0.677 -0.827,-1.511 v -0.342 h -0.63 v 2.349 z"
         id="path54"
         style="fill:#338000;fill-opacity:1;stroke-width:1.52211" />
      <path
         ns7:knockout="Off"
         fill="#1c75bc"
         d="m 79.243,150.024 v 1.381 h 4.406 v -1.381 c 0,-0.743 -0.602,-1.344 -1.344,-1.344 h -1.717 c -0.743,-0.001 -1.345,0.601 -1.345,1.344 z"
         id="path55"
         style="fill:#338000;fill-opacity:1;stroke-width:1.52211" />
      <path
         ns7:knockout="Off"
         fill="#1c75bc"
         d="m 80.148,147.708 v 1.063 h 2.597 v -1.063 c 0,-0.572 -0.355,-1.035 -0.792,-1.035 H 80.94 c -0.438,0 -0.792,0.464 -0.792,1.035 z"
         id="path56"
         style="fill:#338000;fill-opacity:1;stroke-width:1.52211" />
      <path
         ns7:knockout="Off"
         fill="#1c75bc"
         d="m 81.446,142.773 c -1.571,0 -2.844,1.273 -2.844,2.844 0,1.571 1.273,2.844 2.844,2.844 1.571,0 2.844,-1.273 2.844,-2.844 0,-1.571 -1.273,-2.844 -2.844,-2.844 z m 0,4.687 c -1.018,0 -1.843,-0.825 -1.843,-1.843 0,-1.018 0.825,-1.843 1.843,-1.843 1.018,0 1.843,0.825 1.843,1.843 0,1.018 -0.825,1.843 -1.843,1.843 z"
         id="path57"
         style="fill:#338000;fill-opacity:1;stroke-width:1.52211" />
      <path
         ns7:knockout="Off"
         fill="#1c75bc"
         d="m 82.579,205.512 c 0,0.626 -0.507,1.134 -1.133,1.134 -0.626,0 -1.133,-0.507 -1.133,-1.134 0,-0.626 0.507,-1.133 1.133,-1.133 0.626,0 1.133,0.507 1.133,1.133 z"
         id="path58"
         style="fill:#338000;fill-opacity:1;stroke-width:1.52211" />
      <circle
         ns7:knockout="Off"
         fill="#1c75bc"
         cx="81.445999"
         cy="206.843"
         r="0.542"
         id="circle58"
         style="fill:#338000;fill-opacity:1;stroke-width:1.52211" />
      <path
         ns7:knockout="Off"
         fill="#1c75bc"
         d="m 69.023,168.069 v 19.848 h 24.714 v -19.848 z m 6.681,15.925 c 0,1.717 -1.392,3.109 -3.109,3.109 v 0 c -1.717,0 -3.109,-1.392 -3.109,-3.109 V 171.99 c 0,-1.717 1.392,-3.109 3.109,-3.109 v 0 c 1.717,0 3.109,1.392 3.109,3.109 z m 10.163,-1.377 c 0,2.478 -2.009,4.487 -4.487,4.487 v 0 c -2.478,0 -4.487,-2.009 -4.487,-4.487 v -9.25 c 0,-2.478 2.009,-4.487 4.487,-4.487 v 0 c 2.478,0 4.487,2.009 4.487,4.487 z m 7.409,1.377 c 0,1.717 -1.392,3.109 -3.109,3.109 -1.717,0 -3.109,-1.392 -3.109,-3.109 V 171.99 c 0,-1.717 1.392,-3.109 3.109,-3.109 1.717,0 3.109,1.392 3.109,3.109 z"
         id="path59"
         style="fill:#338000;fill-opacity:1;stroke-width:1.52211" />
      <path
         ns7:knockout="Off"
         fill="#ffffff"
         d="m 81.381,147.285 c 0,0.237 -0.192,0.428 -0.428,0.428 -0.237,0 -0.429,-0.192 -0.429,-0.428 0,-0.236 0.192,-0.428 0.429,-0.428 0.236,-0.001 0.428,0.191 0.428,0.428 z"
         id="path60"
         style="fill:#338000;fill-opacity:1;stroke-width:1.52211" />
    </g>
    <rect
       x="782.35706"
       y="277.20074"
       ns7:knockout="Off"
       fill="#1c75bc"
       width="0.27119792"
       height="7.0363293"
       id="rect60"
       style="fill:#338000;fill-opacity:1;stroke-width:0.402725" />
    <g
       id="g77"
       transform="matrix(0.26458333,0,0,0.26458333,760.94355,246.09367)"
       style="fill:#806600;fill-opacity:1;stroke-width:1.52211">
      <path
         ns7:knockout="Off"
         fill="#1c75bc"
         d="m 70.537,155.525 c -0.153,-3.634 -3.856,-6.543 -8.405,-6.543 -4.549,0 -8.252,2.909 -8.405,6.543 z"
         id="path61"
         style="fill:#338000;fill-opacity:1;stroke-width:1.52211" />
      <path
         ns7:knockout="Off"
         fill="#ffffff"
         d="m 58.732,154.617 c -1.349,-0.042 -2.16,-1.527 -1.454,-2.677 1.03,-1.678 2.956,-2.837 5.187,-2.942 -0.111,-0.005 -0.22,-0.015 -0.332,-0.015 -3.48,0 -6.364,2.307 -6.893,5.324 -0.071,0.406 0.232,0.781 0.645,0.781 h 13.224 c -0.006,-0.133 -6.748,-0.359 -10.377,-0.471 z"
         id="path62"
         style="fill:#338000;fill-opacity:1;stroke-width:1.52211" />
      <path
         ns7:knockout="Off"
         fill="#1c75bc"
         d="m 57.77,187.028 c 0.08,1.886 2.002,3.396 4.363,3.396 2.361,0 4.283,-1.51 4.363,-3.396 z"
         id="path63"
         style="fill:#338000;fill-opacity:1;stroke-width:1.52211" />
      <path
         ns7:knockout="Off"
         fill="#1c75bc"
         d="M 68.896,156.978 H 55.369 c -0.417,0 -0.815,-0.174 -1.097,-0.48 l -0.544,-0.589 h 16.81 l -0.544,0.589 c -0.283,0.306 -0.681,0.48 -1.098,0.48 z"
         id="path64"
         style="fill:#338000;fill-opacity:1;stroke-width:1.52211" />
      <path
         ns7:knockout="Off"
         fill="#1c75bc"
         d="m 55.908,159.613 h 12.45 c 1.049,0 2.06,0.396 2.83,1.109 l 0.636,0.588 c 0.118,0.109 0.041,0.307 -0.12,0.307 H 52.562 c -0.161,0 -0.238,-0.198 -0.12,-0.307 l 0.636,-0.588 c 0.769,-0.714 1.78,-1.109 2.83,-1.109 z"
         id="path65"
         style="fill:#338000;fill-opacity:1;stroke-width:1.52211" />
      <path
         ns7:knockout="Off"
         fill="#ffffff"
         d="m 56.987,161.1 0.517,-0.41 c 0.626,-0.497 1.448,-0.773 2.301,-0.773 h -2.734 c -0.853,0 -1.675,0.276 -2.301,0.773 l -0.517,0.41 c -0.096,0.076 -0.033,0.214 0.098,0.214 h 2.734 c -0.131,0 -0.194,-0.138 -0.098,-0.214 z"
         id="path66"
         style="fill:#338000;fill-opacity:1;stroke-width:1.52211" />
      <path
         ns7:knockout="Off"
         fill="#1c75bc"
         d="m 56.267,157.367 v 1.799 h 0.36 v -0.262 c 0,-0.639 0.284,-1.158 0.634,-1.158 0.35,0 0.634,0.518 0.634,1.158 v 0.262 h 0.782 v -0.262 c 0,-0.639 0.356,-1.158 0.795,-1.158 0.439,0 0.795,0.518 0.795,1.158 v 0.262 h 0.962 v -0.262 c 0,-0.639 0.404,-1.158 0.903,-1.158 0.499,0 0.903,0.518 0.903,1.158 v 0.262 h 0.998 v -0.262 c 0,-0.639 0.356,-1.158 0.796,-1.158 0.439,0 0.796,0.518 0.796,1.158 v 0.262 h 0.623 v -0.262 c 0,-0.639 0.284,-1.158 0.634,-1.158 0.35,0 0.634,0.518 0.634,1.158 v 0.262 h 0.482 v -1.799 z"
         id="path67"
         style="fill:#338000;fill-opacity:1;stroke-width:1.52211" />
      <path
         ns7:knockout="Off"
         fill="#1c75bc"
         d="M 69.21,183.97 H 53.728 c 0.039,0.929 3.605,1.811 4.063,2.608 h 8.684 c 0.274,-0.477 1.658,-0.985 2.736,-1.514 v -1.094 z"
         id="path68"
         style="fill:#338000;fill-opacity:1;stroke-width:1.52211" />
      <path
         ns7:knockout="Off"
         fill="#1c75bc"
         d="m 69.21,182.552 c -0.103,-0.022 -0.208,-0.034 -0.314,-0.034 H 55.369 c -0.417,0 -0.815,0.174 -1.097,0.48 l -0.544,0.589 H 69.21 Z"
         id="path69"
         style="fill:#338000;fill-opacity:1;stroke-width:1.52211" />
      <path
         ns7:knockout="Off"
         fill="#1c75bc"
         d="M 69.21,177.879 H 52.562 c -0.161,0 -0.239,0.198 -0.12,0.307 l 0.636,0.588 c 0.77,0.713 1.781,1.109 2.831,1.109 h 12.45 c 0.289,0 0.574,-0.036 0.853,-0.095 v -1.909 z"
         id="path70"
         style="fill:#338000;fill-opacity:1;stroke-width:1.52211" />
      <path
         ns7:knockout="Off"
         fill="#1c75bc"
         d="m 67.998,182.128 v -1.799 h -0.36 v 0.262 c 0,0.639 -0.284,1.158 -0.634,1.158 -0.35,0 -0.634,-0.518 -0.634,-1.158 v -0.262 h -0.782 v 0.262 c 0,0.639 -0.356,1.158 -0.795,1.158 -0.439,0 -0.796,-0.518 -0.796,-1.158 v -0.262 h -0.962 v 0.262 c 0,0.639 -0.404,1.158 -0.903,1.158 -0.499,0 -0.903,-0.518 -0.903,-1.158 v -0.262 h -0.998 v 0.262 c 0,0.639 -0.356,1.158 -0.795,1.158 -0.439,0 -0.796,-0.518 -0.796,-1.158 v -0.262 h -0.623 v 0.262 c 0,0.639 -0.284,1.158 -0.634,1.158 -0.35,0 -0.634,-0.518 -0.634,-1.158 v -0.262 h -0.482 v 1.799 z"
         id="path71"
         style="fill:#338000;fill-opacity:1;stroke-width:1.52211" />
      <path
         ns7:knockout="Off"
         fill="#1c75bc"
         d="m 60.445,148.326 v 1.057 h 3.375 v -1.057 c 0,-0.569 -0.461,-1.03 -1.03,-1.03 h -1.315 c -0.569,0.001 -1.03,0.462 -1.03,1.03 z"
         id="path72"
         style="fill:#338000;fill-opacity:1;stroke-width:1.52211" />
      <path
         ns7:knockout="Off"
         fill="#1c75bc"
         d="m 61.138,146.553 v 0.814 h 1.989 v -0.814 c 0,-0.438 -0.272,-0.793 -0.607,-0.793 h -0.775 c -0.335,0 -0.607,0.355 -0.607,0.793 z"
         id="path73"
         style="fill:#338000;fill-opacity:1;stroke-width:1.52211" />
      <path
         ns7:knockout="Off"
         fill="#1c75bc"
         d="m 62.132,142.773 c -1.203,0 -2.178,0.975 -2.178,2.178 0,1.203 0.975,2.178 2.178,2.178 1.203,0 2.178,-0.975 2.178,-2.178 0.001,-1.203 -0.974,-2.178 -2.178,-2.178 z m 0,3.59 c -0.78,0 -1.412,-0.632 -1.412,-1.412 0,-0.78 0.632,-1.412 1.412,-1.412 0.78,0 1.412,0.632 1.412,1.412 0,0.78 -0.632,1.412 -1.412,1.412 z"
         id="path74"
         style="fill:#338000;fill-opacity:1;stroke-width:1.52211" />
      <path
         ns7:knockout="Off"
         fill="#1c75bc"
         d="m 63.001,190.826 c 0,0.479 -0.389,0.868 -0.868,0.868 -0.479,0 -0.868,-0.389 -0.868,-0.868 0,-0.48 0.389,-0.868 0.868,-0.868 0.479,0 0.868,0.388 0.868,0.868 z"
         id="path75"
         style="fill:#338000;fill-opacity:1;stroke-width:1.52211" />
      <circle
         ns7:knockout="Off"
         fill="#1c75bc"
         cx="62.132"
         cy="191.845"
         r="0.41499999"
         id="circle75"
         style="fill:#338000;fill-opacity:1;stroke-width:1.52211" />
      <path
         ns7:knockout="Off"
         fill="#1c75bc"
         d="m 66.43,174.345 v -9.194 c 0,-1.315 1.066,-2.382 2.382,-2.382 1.316,0 2.382,1.066 2.382,2.382 v 0.486 c 0.116,-0.062 0.229,-0.127 0.354,-0.18 v -3.31 h -18.93 v 15.201 H 69.21 v -0.662 c -0.13,0.022 -0.262,0.04 -0.399,0.04 -1.315,0 -2.381,-1.066 -2.381,-2.381 z m -8.695,0 c 0,1.315 -1.066,2.382 -2.382,2.382 -1.315,0 -2.382,-1.066 -2.382,-2.382 v -9.194 c 0,-1.315 1.066,-2.382 2.382,-2.382 1.315,0 2.382,1.066 2.382,2.382 z m 7.784,-1.055 c 0,1.898 -1.538,3.436 -3.436,3.436 -1.898,0 -3.436,-1.538 -3.436,-3.436 v -7.084 c 0,-1.898 1.538,-3.436 3.436,-3.436 1.898,0 3.436,1.539 3.436,3.436 z"
         id="path76"
         style="fill:#338000;fill-opacity:1;stroke-width:1.52211" />
      <path
         ns7:knockout="Off"
         fill="#ffffff"
         d="m 62.083,146.229 c 0,0.181 -0.147,0.328 -0.328,0.328 -0.181,0 -0.328,-0.147 -0.328,-0.328 0,-0.181 0.147,-0.328 0.328,-0.328 0.181,-0.001 0.328,0.146 0.328,0.328 z"
         id="path77"
         style="fill:#338000;fill-opacity:1;stroke-width:1.52211" />
    </g>
    <rect
       x="777.26569"
       y="277.20074"
       ns7:knockout="Off"
       fill="#1c75bc"
       width="0.27119792"
       height="7.0363293"
       id="rect77"
       style="fill:#338000;fill-opacity:1;stroke-width:0.402725" />
  </g>
</svg>
